<?xml version="1.0" standalone="no"?>
<!DOCTYPE svg PUBLIC "-//W3C//DTD SVG 20010904//EN"
 "http://www.w3.org/TR/2001/REC-SVG-20010904/DTD/svg10.dtd">
<svg version="1.0" xmlns="http://www.w3.org/2000/svg"
 width="1194.000000pt" height="720.000000pt" viewBox="0 0 1194.000000 720.000000"
 preserveAspectRatio="xMidYMid meet">

<g transform="translate(0.000000,720.000000) scale(0.100000,-0.100000)"
fill="#000000" stroke="none">
<path d="M5869 7005 c-61 -128 -89 -177 -104 -180 -11 -3 -99 -16 -195 -30
-95 -14 -176 -27 -178 -29 -2 -3 60 -67 139 -143 l142 -139 -12 -65 c-6 -35
-22 -122 -35 -192 -12 -70 -20 -129 -17 -132 4 -2 56 23 116 56 61 33 138 74
173 92 l63 32 168 -88 c93 -48 174 -87 180 -87 7 0 10 7 7 18 -3 9 -17 82 -30
162 -14 80 -28 159 -31 175 -6 28 3 39 136 170 165 162 174 141 -75 176 -91
12 -169 25 -173 28 -5 3 -46 84 -93 179 -46 94 -87 172 -91 172 -3 0 -44 -79
-90 -175z"/>
<path d="M0 3580 l0 -3580 1980 0 1980 0 -2 3578 -3 3577 -1977 3 -1978 2 0
-3580z"/>
<path d="M7970 3580 l0 -3580 1985 0 1985 0 0 3580 0 3580 -1985 0 -1985 0 0
-3580z"/>
<path d="M5869 5805 c-61 -128 -89 -177 -104 -180 -11 -3 -99 -16 -195 -30
-95 -14 -176 -27 -178 -29 -2 -3 60 -67 139 -143 l142 -139 -12 -65 c-6 -35
-22 -122 -35 -192 -12 -70 -20 -129 -17 -132 4 -2 56 23 116 56 61 33 138 74
173 92 l63 32 168 -88 c93 -48 174 -87 180 -87 7 0 10 7 7 18 -3 9 -17 82 -30
162 -14 80 -28 159 -31 175 -6 28 3 39 136 170 165 162 174 141 -75 176 -91
12 -169 25 -173 28 -5 3 -46 84 -93 179 -46 94 -87 172 -91 172 -3 0 -44 -79
-90 -175z"/>
<path d="M5869 4605 c-61 -128 -89 -177 -104 -180 -11 -3 -99 -16 -195 -30
-95 -14 -176 -27 -178 -29 -2 -3 60 -67 139 -143 l142 -139 -12 -65 c-6 -35
-22 -122 -35 -192 -12 -70 -20 -129 -17 -132 4 -2 56 23 116 56 61 33 138 74
173 92 l63 32 168 -88 c93 -48 174 -87 180 -87 7 0 10 7 7 18 -3 9 -17 82 -30
162 -14 80 -28 159 -31 175 -6 28 3 39 136 170 165 162 174 141 -75 176 -91
12 -169 25 -173 28 -5 3 -46 84 -93 179 -46 94 -87 172 -91 172 -3 0 -44 -79
-90 -175z"/>
<path d="M5869 3405 c-61 -128 -89 -177 -104 -180 -11 -3 -99 -16 -195 -30
-95 -14 -176 -27 -178 -29 -2 -3 60 -67 139 -143 l142 -139 -12 -65 c-6 -35
-22 -122 -35 -192 -12 -70 -20 -129 -17 -132 4 -2 56 23 116 56 61 33 138 74
173 92 l63 32 168 -88 c93 -48 174 -87 180 -87 7 0 10 7 7 18 -3 9 -17 82 -30
162 -14 80 -28 159 -31 175 -6 28 3 39 136 170 165 162 174 141 -75 176 -91
12 -169 25 -173 28 -5 3 -46 84 -93 179 -46 94 -87 172 -91 172 -3 0 -44 -79
-90 -175z"/>
<path d="M5870 2209 c-47 -94 -88 -172 -91 -175 -6 -4 -121 -22 -284 -44 -49
-7 -94 -16 -98 -20 -5 -4 55 -67 133 -141 l142 -134 -7 -40 c-4 -22 -10 -62
-14 -90 -5 -27 -16 -96 -26 -153 -10 -56 -15 -105 -12 -108 3 -3 44 15 91 40
47 25 124 66 171 91 l86 46 175 -92 c96 -50 177 -89 179 -87 3 3 -8 71 -60
360 -4 24 12 43 135 164 77 76 137 141 133 145 -5 4 -91 19 -192 33 -102 15
-187 29 -190 31 -3 2 -44 80 -91 174 -46 94 -87 171 -90 171 -3 0 -44 -77 -90
-171z"/>
<path d="M5870 1015 c-62 -129 -90 -177 -105 -180 -11 -3 -99 -17 -195 -31
-96 -14 -176 -27 -178 -29 -2 -2 60 -66 138 -142 l142 -138 -31 -182 c-17
-100 -31 -189 -31 -197 0 -16 11 -10 278 131 l72 38 174 -90 c96 -49 176 -88
179 -85 3 3 -7 73 -23 155 -15 83 -30 169 -33 192 l-5 42 140 136 c77 75 138
139 135 141 -4 4 -222 39 -322 51 -27 3 -55 10 -61 14 -6 5 -49 86 -95 179
-45 94 -86 170 -89 170 -3 0 -43 -79 -90 -175z"/>
</g>
</svg>
